<svg xmlns="http://www.w3.org/2000/svg" width="200" height="200" fill="none" viewBox="0 0 200 200">
<!-- SVG created with Arrow, by QuiverAI (https://quiver.ai) -->
  <path d="m2.71 72.75c0-36.87 8.18-66.67 48.27-66.75h97.8c40.09 0.08 48.74 29.88 48.74 66.75v63.15c0 32.75-12.45 59.22-48.28 59.22h-98.25c-35.84 0-48.28-23.05-48.28-55.8v-66.57z" fill="url(#paint0_linear_263_10472)"/>
  <path d="m147.8 7.02h-96.57c-36.19 0-47.48 22.41-47.48 55.16v3.93c0-31.55 10.67-58.53 46.5-58.53h98.25c35.83 0 47.77 23.05 47.77 55.8v-1.66c0-32.75-10.27-54.7-48.47-54.7z" fill="url(#paint1_linear_263_10472)"/>
  <path d="m13.18 158.7c1.06 8.18 2.64 16.27 9 18l26.7-1.06-1.07 1.77-25.39 0.46c-6.17-1.01-8.76-10.28-9.24-19.17z" fill="url(#paint2_linear_263_10472)"/>
  <path d="m192.6 165.2c-3.46 5.83-8.03 7.09-19.94 5.83l-14.48-2.1 0.85-1.3 14.69 1.14c9.42 0.53 15.3-0.88 18.88-3.57z" fill="url(#paint3_linear_263_10472)"/>
  <path d="m194 154.8c-3.99 21.33-14.38 37.03-41.93 38.64l-14.03 0.67-8.1 0.13-3.98-0.06-32.58 0.16-3.34-0.08-35.92-0.31-8.93-0.51c-22.53-1.01-34.03-11.71-39-28.3l1.97 0.92c6.03 14.17 15.1 22.92 34.01 23.77l-3.04-6.47h-18.05v-1.68h17.19l-3.04-6.47h2.13l3.04 6.47h51.98v-7.95h1.49v7.95h32.25l-1.85-9.85 1.85-0.29 1.96 10.14h37.85l-4.71-9.34 1.64-0.21 5.04 9.55h16.32v1.68h-15.41l3.52 5.67-1.77 0.77-3.84-6.44h-38.3l1.81 10.27-1.87 0.05-1.88-10.32h-32.61v10.41h-1.49v-10.41h-51.18l-3.48 6.62-1.68-0.64 2.82-5.98h-22.6v-1.68h23.43l3.07-6.47h2.13l-2.57 5.39h50.06v-35.36h-86.26v-1.49h86.26v-18.85h-88.21v-1.49h88.21v-18.51h-87.57v-1.49h87.57v-22.72h-86.26v-1.49h86.26v-16.87h1.49v16.87h100.4v1.49h-100.4v22.72h98.12v1.49h-98.12v18.51h98.83v1.49h-98.83v18.85h100.1v1.49h-100.1v35.36h33.34l1.56-5.8 1.59 0.3-1.4 5.5h36.21l-3.14-6.27 1.55-0.42 3.48 6.69h19.71v1.49h-18.9l2.19 4.36c13.06-5.47 20.1-15.24 23.94-31.65z" fill="url(#paint4_linear_263_10472)"/>
  <path d="m190.1 120.2c-1.34-9.39-11.31-18.45-15.4-24.96l-0.43-8.25 1.54-6.96 1.05-1.92c9.44-3.62 12.74-15.05 12.19-23.47-1-16.03-15.08-26.07-26.11-26.01-8.17 0.05-14.71 5.49-17.79 8.8-13.13-5.44-28.2-7.27-42.22-7.27-14.88 0-28.07 1.13-40.74 4.87l-2.09-1.54 3.04-4.81c1.01-1.73-0.27-2.96-1.86-2.96h-4.54l-0.84-8.61-7.52 2.3-6.65-4.4-2.53 8.37-10.04 3.04 5.79 6.7-3.58 3.47c-12.24-0.56-23.16 11.11-23.16 23.15 0 11.61 5.99 21.54 18.75 25.66l0.84 1.92 1.11 11.72-12.91 16.87c-4.13 6.52-4.29 13.41-1.6 32.82l1.78 0.39 0.9 10.48 3.04 12.19 2.48 1.31 25.3 0.59 4.48-0.43 5.57-0.9 2.15-0.57c9.55 2.15 19.9 2.88 30.67 2.88 16.01 0 33-1.98 48.2-5.98l8.83 0.21 2.25 0.21 6.08-0.42 22.71-0.28 10.21-2.11 2.63-6.7c1.34-8.61 1.34-23.36-1.58-39.4z" fill="url(#paint5_linear_263_10472)" stroke="url(#paint6_linear_263_10472)" stroke-linecap="round" stroke-linejoin="round" stroke-width="1.411"/>
  <path d="m163.8 29.22c-11.04-0.52-18.48 8.5-20.5 12.39l0.79 1.44c5.02 2.15 13.62 17.42 21.02 33.26 11.15-2.3 22.13-11.02 22.49-22.23 0.51-14.17-12.76-24.33-23.8-24.86z" fill="url(#paint7_linear_263_10472)" stroke="url(#paint8_linear_263_10472)" stroke-linecap="round" stroke-linejoin="round" stroke-width="1.411"/>
  <path d="m165.9 43.72c-8.7-0.46-10.85 8.77-10.85 11.09l7.69 12.4c7.29-0.79 12.81-4.88 12.97-11.58 0.15-5.83-3.98-11.61-9.81-11.91z" fill="url(#paint9_linear_263_10472)"/>
  <path d="m31.29 37.14c-11.78 0-21.28 11.12-21.28 22.79 0 11.61 7 22.2 20.34 24.4l5.17-0.57 9.29-27.34c-3.08-13.37-7.83-19.28-13.52-19.28z" fill="url(#paint10_linear_263_10472)" stroke="url(#paint11_linear_263_10472)" stroke-linecap="round" stroke-linejoin="round" stroke-width="1.411"/>
  <path d="m32.06 50.97c-7.94 0-11.85 5.23-11.85 11.64s4.12 11.23 13.07 11.23l6.04-12.65c-1.28-4.88-4.47-10.22-7.26-10.22z" fill="url(#paint12_linear_263_10472)"/>
  <path d="m102.7 30.6c-20.52 0-35.6 2.01-45.52 6.38l2.92 2.25c8.28-2.09 20.95-4.18 39.7-4.18s31.78 2.09 44.01 5.46l1.6-2.84c-9.24-4.44-22.2-7.07-42.71-7.07z" fill="url(#paint13_linear_263_10472)"/>
  <path d="m16.62 148.1c-3.19 0.38-3.44 2.53-2.65 9.23 1.06 6.7 2.17 16.79 8.34 17.85l25.4-0.47 1.53-2.5-2.09-3.09-20.35-6.51c-6.65-3.09-8.64-7.43-10.18-14.51z" fill="url(#paint14_linear_263_10472)" stroke="#6E3232" stroke-linecap="round" stroke-linejoin="round" stroke-width="1.136"/>
  <path d="m191.5 139.3c2.94 0 2.45 4.82 0.67 15.3-1.44 7.66-2.03 12.51-6.36 13.3-5.06 0.95-14.89 0.85-25.46 0l-2.1-1.48 2.69-3.19 18.2-8.62c7.81-4.5 10.95-7.69 12.36-15.31z" fill="url(#paint15_linear_263_10472)" stroke="#6E3232" stroke-linecap="round" stroke-linejoin="round" stroke-width=".9192"/>
  <path d="m15.08 159.6 3.53 13.09" stroke="#422121" stroke-linecap="round" stroke-linejoin="round" stroke-width=".5678"/>
  <path d="m21.3 162.2 1.69 12.35" stroke="#422121" stroke-linecap="round" stroke-linejoin="round" stroke-width=".5678"/>
  <path d="m26 164.1 1.68 10.73" stroke="#422121" stroke-linecap="round" stroke-linejoin="round" stroke-width=".5678"/>
  <path d="m30.91 165.8 1.82 8.93" stroke="#422121" stroke-linecap="round" stroke-linejoin="round" stroke-width=".5678"/>
  <path d="m35.62 167.5 1.69 7.13" stroke="#422121" stroke-linecap="round" stroke-linejoin="round" stroke-width=".5678"/>
  <path d="m187.2 154.8-2.85 13.37" stroke="#422121" stroke-linecap="round" stroke-linejoin="round" stroke-width=".5678"/>
  <path d="m182.8 157.8-2.69 11.11" stroke="#422121" stroke-linecap="round" stroke-linejoin="round" stroke-width=".5678"/>
  <path d="m177.6 160.3-2.09 8.26" stroke="#422121" stroke-linecap="round" stroke-linejoin="round" stroke-width=".5678"/>
  <path d="m172.7 162.4-1.79 6.37" stroke="#422121" stroke-linecap="round" stroke-linejoin="round" stroke-width=".5678"/>
  <path d="m24.22 99.82c-7.96 0-13.49 2.19-15.13-2.81-2.18-6.94-0.66-9.25 5.73-9.89 8.1-0.85 12.3-0.96 12.81 1.57 1.12 5.17 0.71 11.13-3.41 11.13z" fill="url(#paint16_linear_263_10472)" stroke="url(#paint17_linear_263_10472)" stroke-linecap="round" stroke-linejoin="round" stroke-width="1.411"/>
  <path d="m177.5 78.41c9.24-0.28 14.21-0.12 14.71 4.2 0.52 5.44-0.5 10.76-7.28 11.05-7.27 0.32-11.9 0.53-12.16-2.72-0.47-6.13-0.16-12.37 4.73-12.53z" fill="url(#paint18_linear_263_10472)" stroke="url(#paint19_linear_263_10472)" stroke-linecap="round" stroke-linejoin="round" stroke-width="1.411"/>
  <path d="m26.42 93.92c0-1.06 0.57-1.91 1.26-1.91 0.7 0 1.26 0.85 1.26 1.91s-0.56 1.91-1.26 1.91c-0.69 0-1.26-0.85-1.26-1.91z" fill="#000"/>
  <path d="m173.1 85.84c0-1.06 0.77-1.91 1.72-1.91s1.72 0.85 1.72 1.91-0.77 1.91-1.72 1.91-1.72-0.85-1.72-1.91z" fill="#000"/>
  <path d="m188.9 112c-2.4-3.8-3.38-1.02-1.99 2.13 1.99 1.06 3.04 3.17 3.39 6.26 0.31-2.53 0.1-5.95-1.4-8.39z" fill="#fff"/>
  <path d="m15.23 119.1c-2.05 1.83-2.05 7-1.52 9 0.43-2.48 0.75-6.2 2.54-7.17 1.01-1.3 0.48-3.12-1.02-1.83z" fill="#fff"/>
  <path d="m30.2 97.94c3.19-18.76 5.28-36.65 15.53-47.29 8.79-9.19 28.38-13.51 56.19-13.51 22.19 0 36.83 3.52 42.27 7.78 7.72 6 12.84 20.23 18.97 29.09 4.75 6.76 7.5 11.94 6.65 19.7l1.49 1c6.34 5.55 15.01 17.27 19.28 25.8 1.87 4.96 0 19-0.62 20.17l-3.04-1.97-8.84 1.28-6.65 3.14-10.32 3.3-8.79 1.83-5.01 12.55c-14.3 5.62-32.6 9.04-52.48 9.04-11.04 0-22.02-1.25-32.63-3.64l-8.28-12.09-11.78-1.78-12.66-2.53-8.65-2.48-3.04 0.78c-3.08-14.22-5.61-24.92 1.13-34.91 2.59-3.94 7.02-10.97 11.28-15.26z" fill="url(#paint20_linear_263_10472)" stroke="url(#paint21_linear_263_10472)" stroke-linecap="round" stroke-linejoin="round" stroke-width="1.411"/>
  <path d="m169.7 91.7c-1.64-1.91-6.92-3.12-14.42-2.96l-4.4-2.68-21.69-13.31c-5.33-2.3-11.67-3.04-12.73-2.67l4.12-1.68c-3.32-1.29-12.56-1.39-15.4-0.98l1.11-1.34c-8.49-0.47-22.64 4.05-31.19 8.43-3.79 2.01-5.78 3.62-7.06 3.62-11.04-1.23-23.36 4.9-30.66 16.47l-0.26 1.13 3.94-1.13c6.88-1.87 10.72 1.49 14.45 5.71l9.35 65c8.28 2.15 17.46 2.94 27.23 2.94 16.63 0 34.62-3.3 47.59-8.06l8.41-17.17 13.8-22.18 16.01-9.69 4.79-0.53c-3.71-7.96-7.63-14.53-12.99-18.92z" fill="url(#paint22_linear_263_10472)"/>
  <path d="m61.72 97.62c-9.71 0-12.74 8.21-12.74 14.57 0 9.49 6.17 19.28 15.13 19.28 10.4 0 20.6-9.02 20.6-17.11 0-7.45-11.59-16.74-22.99-16.74z" fill="url(#paint23_linear_263_10472)" stroke="#6E1515" stroke-linecap="round" stroke-linejoin="round" stroke-width="1.136"/>
  <path d="m62.72 104-9.5 2.69c-0.57 2.25-0.78 3.64-0.78 5.41 0 9.08 5.89 17.21 14.49 17.21 9.34 0 16.18-7.15 16.18-14.09 0-2.64-1.2-5.59-3.25-8.34l-17.14-2.88z" fill="#fff"/>
  <path d="m71.11 104.6-8.9 3.6c-0.38 1.56-0.43 2.46-0.43 3.97 0 7.77 4.97 14.18 12.41 13.72 6.93-0.43 9.96-5.95 9.96-11.92 0-2.3-0.73-4.54-1.79-6.64l-11.25-2.73z" fill="url(#paint24_linear_263_10472)"/>
  <path d="m75.77 115.7c0-2.37 1.16-2.53 1.85-2.37l3.59 0.95c1 0.52 0.52 3.93-2.27 3.93-2.09 0-3.17-1.4-3.17-2.51z" fill="#fff"/>
  <path d="m136.6 92.81c10.24 0 16.06 6.66 16.06 15.13 0 9.49-6.03 17.86-13.89 17.86-11.04 0-21.91-9.39-21.91-17.48 0-6.46 9.5-15.51 19.74-15.51z" fill="url(#paint25_linear_263_10472)" stroke="#6E1515" stroke-linecap="round" stroke-linejoin="round" stroke-width="1.136"/>
  <path d="m136.8 99.32 10.81-1.7c2.04 3.2 2.09 6.35 2.09 8.49 0 9.5-5.78 17.53-14.38 17.53-8.22 0-13.75-7.49-13.75-14.44 0-2.14 0.47-4.15 1.37-6.07l13.86-3.81z" fill="#fff"/>
  <path d="m134 100.1 5.17 3.03c1 2.3 1.32 4.21 1.32 6.46 0 7.77-5.58 13.22-11.8 12.75-6.5-0.52-10.56-7.14-10.56-13.11 0-1.62 0.26-2.79 0.68-4.18l15.19-4.95z" fill="url(#paint26_linear_263_10472)"/>
  <path d="m125.6 110.6c0 2.31-1.88 3.84-3.52 3.84-1.94 0-2.83-1.53-2.93-3.36l2.98-1.77c1.64-0.9 3.47-0.68 3.47 1.29z" fill="#fff"/>
  <path d="m49.71 95.15c-1.59 2.99-2.36 7.13-2.36 9.47l1.31 1.11 39.45 11.78c3.79 1.23 4.85-3.36 2.37-6.89 0.26 2.31-0.69 2.1-2.37 1.31l-37.34-17.28c-0.64-0.31-0.85 0-1.06 0.5z" fill="url(#paint27_linear_263_10472)"/>
  <path d="m148.5 86.16c2.33 0.85 3.84 6.63 4.05 8.84l-1.21 1.25-38.71 19.21c-3.99 1.68-5.72-3.7-3.99-7.35 0 1.88 1.29 2.04 2.55 1.14l34.78-22.24c1.15-0.74 1.76-1.12 2.53-0.85z" fill="url(#paint28_linear_263_10472)"/>
  <path d="m103.4 115.1c-16.99 0-33.32 11.02-33.32 31.67 0 12.29 9.92 21.67 27.06 21.67 17.89 0 40.98-8.24 40.98-22.31 0-16.87-14.83-31.03-34.72-31.03z" fill="url(#paint29_linear_263_10472)"/>
  <path d="m87.85 126.8c0-5.66 7.24-7.86 14.91-7.86 5.97 0 11.09 1.68 11.09 6.52 0 5.02-8.33 11.73-12.81 11.73-3.89 0-13.19-4.71-13.19-10.39z" fill="url(#paint30_linear_263_10472)"/>
  <path d="m93.12 156.1c6.39-4.02 10.93-5.56 18.57-5.56 6.79 0 10.21 1.28 15.74 0.91 4.7-0.32 5.96-2.91 5.49-7.53-0.85-8.22-6.33-11.79-8.71-11.79-11.93 0-29.98 17.19-31.52 23.33-0.36 1.3-0.21 1.08 0.43 0.64z" fill="url(#paint31_linear_263_10472)" stroke="#000" stroke-linecap="round" stroke-linejoin="round" stroke-width="1.136"/>
  <path d="m118.4 134.2 2.25 9.18c2.34-2.64 4.08-8.33 3.76-10.63-1.26-0.37-4.35 0.36-6.01 1.45z" fill="#fff" stroke="#000" stroke-linecap="round" stroke-linejoin="round" stroke-width=".5678"/>
  <path d="m95.09 154.2c3.03-3.04 8.96-5.57 17.03-6.42 6.29-0.69 9.99 2.25 15.31 1.99 2.69-0.16 3.38-1.89 1.99-4.09-2.33-3.67-7.31-2.42-12.59-3.11-9.6-1.34-19.74 5.57-22.43 11.47-0.42 1.01-0.21 1.06 0.69 0.16z" fill="url(#paint32_linear_263_10472)" stroke="#000" stroke-linecap="round" stroke-linejoin="round" stroke-width=".5678"/>
  <path d="m130.1 73.42c5.02-5.68 10.09-8.27 17.19-8.27 11.4 0 22.64 11.06 22.64 23.91v3.36l-2.63-1.23c-1.26-9.64-8.2-17.13-13.89-17.98-6.64-1-11.24 1.63-15.49 5.4 4.87-1.44 15.07-2.92 19.46 2.31 2.33 2.89 2.75 6.51 2.91 7.82l-4.3-0.53-5.48-3.09-19.89-11.06-2.43 1.78-0.47-0.21 2.38-2.21z" fill="url(#paint33_linear_263_10472)" stroke="#fff" stroke-linecap="round" stroke-linejoin="round" stroke-width="1.411"/>
  <path d="m67.65 78.13c-7.75 0.28-17.25 2.79-25.53 11.4 7.91-11.12 16.99-12.22 23.73-12.22" stroke="#fff" stroke-linecap="round" stroke-linejoin="round" stroke-width="1.136"/>
  <path d="m104 66.64c-11.04 1.43-29.84 5.79-39.03 12.49l-6.79 6.93c7.46-9.95 19.39-14.31 37.18-18.85 3.53-1.05 6.89-1.13 8.64-1.13v0.56z" fill="#fff"/>
  <path d="m119.1 68.4c-3.53 0-10.51 1.21-17.05 1.84l3.93-2.82c4.2-0.36 10.69-0.21 13.12 0.98z" fill="#fff"/>
  <path d="m30.46 119c-5.28 0-7.32 5.12-7.32 11.12 0 5.33 1.49 10.56 4.81 12.58 5.74 3.36 13.68 4.68 19.41 4.68 7.39 0 10.28-2.84 10.28-6.81 0-7.5-13.45-21.57-27.18-21.57z" fill="url(#paint34_linear_263_10472)" stroke="#9E1212" stroke-linecap="round" stroke-linejoin="round" stroke-width="1.411"/>
  <path d="m30.88 122.2c-4.19 0-4.25 5.87-4.25 8.41 0 3.41 1 8.06 4.09 9.55 5.53 2.66 10.49 3.56 16.02 3.56 5.88 0 8.82-2.06 8.82-5.05 0-6.11-11.24-16.47-24.68-16.47z" fill="url(#paint35_linear_263_10472)" stroke="#FF8541" stroke-linecap="round" stroke-linejoin="round" stroke-width="1.411"/>
  <path d="m172.7 112.7c5.53-0.48 6.53 4.01 6.53 11.99 0 5.73-1.54 10.75-5.29 12.44-6.28 2.84-10.87 3.69-16.85 3.69-6.89 0-10.14-2.02-10.14-6.33 0-8.29 11.98-20.68 25.75-21.79z" fill="url(#paint36_linear_263_10472)" stroke="#910C0C" stroke-linecap="round" stroke-linejoin="round" stroke-width="1.411"/>
  <path d="m172.1 116.2c4.19-0.37 4.6 5.21 4.6 9.11 0 3.8-1.11 7.76-3.8 9.1-4.96 2.58-8.23 3.26-13.3 3.26-5.12 0-8.61-1.44-8.61-4.75 0-6.46 8.77-15.85 21.11-16.72z" fill="url(#paint37_linear_263_10472)" stroke="#FF8541" stroke-linecap="round" stroke-linejoin="round" stroke-width="1.411"/>
  <path d="m34.81 134.6c0-5.34 3.53-7.26 7.33-7.26 5.27 0 7.89 4.39 7.89 8.15 0 4.54-3.37 7.25-6.9 7.25-4.71 0-8.32-3.45-8.32-8.14z" fill="url(#paint38_linear_263_10472)"/>
  <path d="m155.1 130.6c0-5.55 3.6-8.31 7.44-8.31 4.77 0 7.29 3.88 7.29 7.41 0 5.03-3.53 7.92-7.09 7.92-4.35 0-7.64-2.94-7.64-7.02z" fill="url(#paint39_linear_263_10472)"/>
  <path d="m185.8 138.4c-2.96 0-7.7 5.73-19.31 8.31-7.86 1.82-12.05 0.62-14.15 5.47-2.38 5.44-4.2 11.75-3.68 15.97 0.47 0.61 3.27 0.56 6.78 0.28 2.59-0.21 2.8-4.71 5.38-11.42 1.54-4.26 2.31-4.94 8.04-6.48 5.28-1.48 7.22-2.21 7.22 0.43 0.15 4.75-3.47 6.63-15.26 10.2l-0.95 4.15c9.56-2.99 19.26-7.43 24.7-12.56 4.47-4.32 6.15-14.35 1.23-14.35z" fill="url(#paint40_linear_263_10472)" stroke="#442A2A" stroke-linecap="round" stroke-linejoin="round" stroke-width="1.136"/>
  <path d="m20.15 146.9c1.99-2.2 3.58-0.66 5.96 1.16 6.22 4.16 13.1 5.64 23.24 6.11 4.39 0.16 5.78 3.63 8.06 8.7 1.98 4.44 2.5 7.75 2.24 9.44-1.99 1.06-6.95 1.28-8.94 0.38-2.1-2.69-5.29-4.79-13.62-7.39-7.97-2.59-11.81-4.5-14.95-8.51-2.99-3.77-3.63-8.11-1.99-9.89z" fill="url(#paint41_linear_263_10472)" stroke="#442A2A" stroke-linecap="round" stroke-linejoin="round" stroke-width="1.136"/>
  <path d="m32.12 156.3c0.52-1.23 1.21-0.86 3.09-0.44l7.97 2.02c1.94 0.52 2.51 2.34 3.2 4.54l1.33 4.27-10.67-3.3c-3.71-1.25-6.13-4.5-4.92-7.09z" fill="url(#paint42_linear_263_10472)" stroke="#331818" stroke-linecap="round" stroke-linejoin="round" stroke-width="1.136"/>
  <path d="m58.7 167.6c11.41 3.31 22.31 3.1 34.15 3.1 16.16 0 33.35-2.4 55.9-9.61v5.38c-17.31 5.17-32.52 7.32-51.6 7.32-10.99 0-23.22-0.9-37.04-3.7l-1.41-2.49z" fill="url(#paint43_linear_263_10472)" stroke="#331818" stroke-linecap="round" stroke-linejoin="round" stroke-width="1.136"/>
  <path d="m29.63 13.11c-6.49 2.25-10.22 5.82-9.96 6.93 0.48 1.68 0.79 1.36 3.05 0.21 3.19-1.64 6.45-3.17 10.97-4.52 3.3-1.01 3.56-2.54 2.56-3.6-1.06-1.11-2.7-0.42-6.62 0.98z" fill="#fff"/>
  <path d="m29.79 26.44 6.64 6.12-3.64 8.05 9.35-0.64 3.38 8.86 6.23-8.22 5.94-1.01 5.03 2.01-3.33-7.71 6.69-6.46-9.2-1.33-1.39-8.77-7.04 3.14-6.72-4.8-1.78 7.72-10.16 3.04z" fill="#F23407" stroke="#F9D775" stroke-linecap="round" stroke-linejoin="round" stroke-width="2.823"/>
  <path d="m66.39 37.14 3.62-0.89c2.43-0.64 2.9 3.19 0 3.77l-5.9 1.18 2.28-4.06z" fill="url(#paint44_linear_263_10472)"/>
  <path d="m46.04 55.12c5.69-10.69 20.17-15.52 53.77-17.09 17.2-0.32 35.9 2.26 42.64 7.11 5.78 4.17 8.56 10.78 13.17 20.06-6.49-2.89-9.81-2.59-16.6-1.48-7.19 1.22-15.86 6.99-19.31 6.36-5.53-1.06-16.57-1.63-23.56 0-8.29 2.11-18.22-0.37-24 0-9 0.58-20.88 1.37-26.11-14.96z" fill="url(#paint45_linear_263_10472)"/>
  <path d="m52.39 53.11c8.84-9.09 19.71-11.86 28.67-9.71l-25.88 29.71-10.37 2.99c1.34-8.89 3.27-18.13 7.58-22.99z" fill="url(#paint46_linear_263_10472)"/>
  <path d="m71.21 44.38c-3.79 1-5.13 3.64-3.79 4.44 2.28 1.34 8.26-0.72 11.79-4.44 1.98-2.25-2.27-1.49-8 0z" fill="#fff"/>
  <path d="m78.68 84.38c-3.07 0.32-3.55 2.63-3.07 4.04 0.84 2.44 5.14 2.02 6.97 0 1.78-2.1 0.05-4.44-3.9-4.04z" fill="url(#paint47_linear_263_10472)"/>
  <defs>
    <linearGradient id="paint0_linear_263_10472" x1="100.1" x2="100.1" y1="6" y2="195.1" gradientUnits="userSpaceOnUse">
      <stop stop-color="#B10000" offset="0"/>
      <stop stop-color="#D12804" offset=".51"/>
      <stop stop-color="#f60" offset="1"/>
    </linearGradient>
    <linearGradient id="paint1_linear_263_10472" x1="100" x2="100" y1="6.805" y2="65.42" gradientUnits="userSpaceOnUse">
      <stop stop-color="#F17575" offset="0"/>
      <stop stop-color="#F17575" stop-opacity=".14" offset="1"/>
    </linearGradient>
    <linearGradient id="paint2_linear_263_10472" x1="30.59" x2="30.59" y1="158.7" y2="177.9" gradientUnits="userSpaceOnUse">
      <stop stop-color="#FF8638" offset="0"/>
      <stop stop-color="#FF8638" stop-opacity=".15" offset="1"/>
    </linearGradient>
    <linearGradient id="paint3_linear_263_10472" x1="175.4" x2="175.4" y1="165.2" y2="171.7" gradientUnits="userSpaceOnUse">
      <stop stop-color="#FF8638" offset="0"/>
      <stop stop-color="#FF8638" stop-opacity=".15" offset="1"/>
    </linearGradient>
    <linearGradient id="paint4_linear_263_10472" x1="100" x2="100" y1="62.31" y2="194.3" gradientUnits="userSpaceOnUse">
      <stop stop-color="#921104" offset="0"/>
      <stop stop-color="#972403" offset=".49"/>
      <stop stop-color="#c30" offset="1"/>
    </linearGradient>
    <linearGradient id="paint5_linear_263_10472" x1="100" x2="100" y1="28.65" y2="174.1" gradientUnits="userSpaceOnUse">
      <stop stop-color="#991717" offset="0"/>
      <stop stop-color="#f00" offset=".31"/>
      <stop stop-color="#B80000" offset=".6"/>
      <stop stop-color="#820000" offset="1"/>
    </linearGradient>
    <linearGradient id="paint6_linear_263_10472" x1="100" x2="100" y1="28.65" y2="174.1" gradientUnits="userSpaceOnUse">
      <stop stop-color="#fff" offset="0"/>
      <stop stop-color="#840000" offset="1"/>
    </linearGradient>
    <linearGradient id="paint7_linear_263_10472" x1="165.6" x2="165.6" y1="29.18" y2="76.31" gradientUnits="userSpaceOnUse">
      <stop stop-color="#C86239" offset="0"/>
      <stop stop-color="#822614" offset=".51"/>
      <stop stop-color="#551919" offset="1"/>
    </linearGradient>
    <linearGradient id="paint8_linear_263_10472" x1="165.6" x2="165.6" y1="29.18" y2="76.31" gradientUnits="userSpaceOnUse">
      <stop stop-color="#fff" offset="0"/>
      <stop stop-color="#521212" offset="1"/>
    </linearGradient>
    <linearGradient id="paint9_linear_263_10472" x1="165.4" x2="165.4" y1="43.68" y2="67.21" gradientUnits="userSpaceOnUse">
      <stop stop-color="#f60" offset="0"/>
      <stop stop-color="#FFD373" offset="1"/>
    </linearGradient>
    <linearGradient id="paint10_linear_263_10472" x1="27.41" x2="27.41" y1="37.14" y2="84.49" gradientUnits="userSpaceOnUse">
      <stop stop-color="#D45534" offset="0"/>
      <stop stop-color="#82180A" offset=".51"/>
      <stop stop-color="#550909" offset="1"/>
    </linearGradient>
    <linearGradient id="paint11_linear_263_10472" x1="27.41" x2="27.41" y1="37.14" y2="84.49" gradientUnits="userSpaceOnUse">
      <stop stop-color="#fff" offset="0"/>
      <stop stop-color="#520909" offset="1"/>
    </linearGradient>
    <linearGradient id="paint12_linear_263_10472" x1="29.77" x2="29.77" y1="50.97" y2="73.84" gradientUnits="userSpaceOnUse">
      <stop stop-color="#f60" offset="0"/>
      <stop stop-color="#FFD373" offset="1"/>
    </linearGradient>
    <linearGradient id="paint13_linear_263_10472" x1="101.3" x2="101.3" y1="30.6" y2="40.51" gradientUnits="userSpaceOnUse">
      <stop stop-color="#f00" offset="0"/>
      <stop stop-color="#4A091B" stop-opacity=".78" offset="1"/>
    </linearGradient>
    <linearGradient id="paint14_linear_263_10472" x1="29.77" x2="29.77" y1="148" y2="175.3" gradientUnits="userSpaceOnUse">
      <stop stop-color="#845959" offset="0"/>
      <stop stop-color="#371818" offset="1"/>
    </linearGradient>
    <linearGradient id="paint15_linear_263_10472" x1="175.8" x2="175.8" y1="139.3" y2="168.8" gradientUnits="userSpaceOnUse">
      <stop stop-color="#845959" offset="0"/>
      <stop stop-color="#371818" offset="1"/>
    </linearGradient>
    <linearGradient id="paint16_linear_263_10472" x1="18.61" x2="18.61" y1="86.61" y2="101.7" gradientUnits="userSpaceOnUse">
      <stop stop-color="#F65252" offset="0"/>
      <stop stop-color="#910909" offset=".51"/>
      <stop stop-color="#670404" offset="1"/>
    </linearGradient>
    <linearGradient id="paint17_linear_263_10472" x1="18.61" x2="18.61" y1="86.61" y2="101.7" gradientUnits="userSpaceOnUse">
      <stop stop-color="#fff" offset="0"/>
      <stop stop-color="#520909" offset="1"/>
    </linearGradient>
    <linearGradient id="paint18_linear_263_10472" x1="182.7" x2="182.7" y1="78.13" y2="93.98" gradientUnits="userSpaceOnUse">
      <stop stop-color="#F65252" offset="0"/>
      <stop stop-color="#910909" offset=".51"/>
      <stop stop-color="#670404" offset="1"/>
    </linearGradient>
    <linearGradient id="paint19_linear_263_10472" x1="182.7" x2="182.7" y1="78.13" y2="93.98" gradientUnits="userSpaceOnUse">
      <stop stop-color="#fff" offset="0"/>
      <stop stop-color="#520909" offset="1"/>
    </linearGradient>
    <linearGradient id="paint20_linear_263_10472" x1="103.1" x2="103.1" y1="36.61" y2="169.8" gradientUnits="userSpaceOnUse">
      <stop stop-color="#921104" offset="0"/>
      <stop stop-color="#f00" offset=".49"/>
      <stop stop-color="#820000" offset=".78"/>
      <stop stop-color="#820000" offset="1"/>
    </linearGradient>
    <linearGradient id="paint21_linear_263_10472" x1="101.9" x2="101.9" y1="36.61" y2="169.8" gradientUnits="userSpaceOnUse">
      <stop stop-color="#fff" offset="0"/>
      <stop stop-color="#520909" offset="1"/>
    </linearGradient>
    <linearGradient id="paint22_linear_263_10472" x1="100" x2="100" y1="65.81" y2="168.2" gradientUnits="userSpaceOnUse">
      <stop stop-color="#D35128" offset="0"/>
      <stop stop-color="#B84624" offset=".51"/>
      <stop stop-color="#966633" offset="1"/>
    </linearGradient>
    <linearGradient id="paint23_linear_263_10472" x1="66.93" x2="66.93" y1="97.62" y2="131.5" gradientUnits="userSpaceOnUse">
      <stop stop-color="#420606" offset="0"/>
      <stop stop-color="#290000" offset=".51"/>
      <stop stop-color="#290000" offset="1"/>
    </linearGradient>
    <linearGradient id="paint24_linear_263_10472" x1="72.97" x2="72.97" y1="104" y2="125.9" gradientUnits="userSpaceOnUse">
      <stop stop-color="#080303" offset="0"/>
      <stop stop-color="#320606" offset=".51"/>
      <stop stop-color="#680303" offset="1"/>
    </linearGradient>
    <linearGradient id="paint25_linear_263_10472" x1="134.8" x2="134.8" y1="92.8" y2="126.2" gradientUnits="userSpaceOnUse">
      <stop stop-color="#420606" offset="0"/>
      <stop stop-color="#290000" offset=".51"/>
      <stop stop-color="#290000" offset="1"/>
    </linearGradient>
    <linearGradient id="paint26_linear_263_10472" x1="129.3" x2="129.3" y1="100.1" y2="122.4" gradientUnits="userSpaceOnUse">
      <stop stop-color="#080303" offset="0"/>
      <stop stop-color="#320606" offset=".51"/>
      <stop stop-color="#680303" offset="1"/>
    </linearGradient>
    <linearGradient id="paint27_linear_263_10472" x1="69.2" x2="69.2" y1="94.32" y2="118.2" gradientUnits="userSpaceOnUse">
      <stop stop-color="#351111" offset="0"/>
      <stop stop-color="#120909" offset="1"/>
    </linearGradient>
    <linearGradient id="paint28_linear_263_10472" x1="130.4" x2="130.4" y1="85.92" y2="116.1" gradientUnits="userSpaceOnUse">
      <stop stop-color="#351111" offset="0"/>
      <stop stop-color="#120909" offset="1"/>
    </linearGradient>
    <linearGradient id="paint29_linear_263_10472" x1="104.1" x2="104.1" y1="115.1" y2="168.4" gradientUnits="userSpaceOnUse">
      <stop stop-color="#FFD791" offset="0"/>
      <stop stop-color="#FEDAAA" offset=".51"/>
      <stop stop-color="#B86839" offset="1"/>
    </linearGradient>
    <linearGradient id="paint30_linear_263_10472" x1="100.6" x2="100.6" y1="118.9" y2="137.1" gradientUnits="userSpaceOnUse">
      <stop stop-color="#421A1A" offset="0"/>
      <stop stop-color="#190404" offset=".51"/>
      <stop stop-color="#0A0202" offset="1"/>
    </linearGradient>
    <linearGradient id="paint31_linear_263_10472" x1="112.9" x2="112.9" y1="132.1" y2="151.6" gradientUnits="userSpaceOnUse">
      <stop stop-color="#080303" offset="0"/>
      <stop stop-color="#320606" offset=".51"/>
      <stop stop-color="#680303" offset="1"/>
    </linearGradient>
    <linearGradient id="paint32_linear_263_10472" x1="112.3" x2="112.3" y1="142" y2="155.1" gradientUnits="userSpaceOnUse">
      <stop stop-color="#750B0B" offset="0"/>
      <stop stop-color="#CC1919" offset=".51"/>
      <stop stop-color="#951414" offset="1"/>
    </linearGradient>
    <linearGradient id="paint33_linear_263_10472" x1="148.7" x2="148.7" y1="65.15" y2="92.42" gradientUnits="userSpaceOnUse">
      <stop stop-color="#E8734A" offset="0"/>
      <stop stop-color="#993628" offset=".51"/>
      <stop stop-color="#631A1A" offset="1"/>
    </linearGradient>
    <linearGradient id="paint34_linear_263_10472" x1="40.49" x2="40.49" y1="118.9" y2="147.3" gradientUnits="userSpaceOnUse">
      <stop stop-color="#B82403" offset="0"/>
      <stop stop-color="#FF4100" offset=".51"/>
      <stop stop-color="#FFB873" offset="1"/>
    </linearGradient>
    <linearGradient id="paint35_linear_263_10472" x1="41.09" x2="41.09" y1="122.2" y2="144.4" gradientUnits="userSpaceOnUse">
      <stop stop-color="#FF8441" offset="0"/>
      <stop stop-color="#FFD673" offset=".51"/>
      <stop stop-color="#FFD691" offset="1"/>
    </linearGradient>
    <linearGradient id="paint36_linear_263_10472" x1="163.1" x2="163.1" y1="112.7" y2="141" gradientUnits="userSpaceOnUse">
      <stop stop-color="#B82403" offset="0"/>
      <stop stop-color="#FF4100" offset=".51"/>
      <stop stop-color="#FFB873" offset="1"/>
    </linearGradient>
    <linearGradient id="paint37_linear_263_10472" x1="163.9" x2="163.9" y1="116.1" y2="137.7" gradientUnits="userSpaceOnUse">
      <stop stop-color="#FF8441" offset="0"/>
      <stop stop-color="#FFD673" offset=".51"/>
      <stop stop-color="#FFCD73" offset="1"/>
    </linearGradient>
    <linearGradient id="paint38_linear_263_10472" x1="42.42" x2="42.42" y1="127.4" y2="142.8" gradientUnits="userSpaceOnUse">
      <stop stop-color="#FFFFE3" offset="0"/>
      <stop stop-color="#FFFFD4" offset=".51"/>
      <stop stop-color="#FFF0B2" offset="1"/>
    </linearGradient>
    <linearGradient id="paint39_linear_263_10472" x1="162.5" x2="162.5" y1="122.3" y2="137.7" gradientUnits="userSpaceOnUse">
      <stop stop-color="#FFFFE3" offset="0"/>
      <stop stop-color="#FFFFD4" offset=".51"/>
      <stop stop-color="#FFF0B2" offset="1"/>
    </linearGradient>
    <linearGradient id="paint40_linear_263_10472" x1="169.5" x2="169.5" y1="138.4" y2="168.6" gradientUnits="userSpaceOnUse">
      <stop stop-color="#845959" offset="0"/>
      <stop stop-color="#371818" offset="1"/>
    </linearGradient>
    <linearGradient id="paint41_linear_263_10472" x1="39.36" x2="39.36" y1="145.8" y2="173" gradientUnits="userSpaceOnUse">
      <stop stop-color="#845959" offset="0"/>
      <stop stop-color="#371818" offset="1"/>
    </linearGradient>
    <linearGradient id="paint42_linear_263_10472" x1="39.36" x2="39.36" y1="155.4" y2="166.7" gradientUnits="userSpaceOnUse">
      <stop stop-color="#331818" offset="0"/>
      <stop stop-color="#331818" offset="1"/>
    </linearGradient>
    <linearGradient id="paint43_linear_263_10472" x1="93.72" x2="93.72" y1="161.1" y2="173.8" gradientUnits="userSpaceOnUse">
      <stop stop-color="#845959" offset="0"/>
      <stop stop-color="#371818" offset="1"/>
    </linearGradient>
    <linearGradient id="paint44_linear_263_10472" x1="67.57" x2="67.57" y1="35.96" y2="41.2" gradientUnits="userSpaceOnUse">
      <stop stop-color="#991717" offset="0"/>
      <stop stop-color="#4D1616" offset="1"/>
    </linearGradient>
    <linearGradient id="paint45_linear_263_10472" x1="94.73" x2="94.73" y1="37.91" y2="70.35" gradientUnits="userSpaceOnUse">
      <stop stop-color="#111139" offset="0"/>
      <stop stop-color="#111139" stop-opacity=".18" offset="1"/>
    </linearGradient>
    <linearGradient id="paint46_linear_263_10472" x1="63.53" x2="63.53" y1="42.83" y2="76.1" gradientUnits="userSpaceOnUse">
      <stop stop-color="#DBD9ED" offset="0"/>
      <stop stop-color="#DBD9ED" stop-opacity=".34" offset=".48"/>
      <stop stop-color="#DBD9ED" stop-opacity="0" offset="1"/>
    </linearGradient>
    <linearGradient id="paint47_linear_263_10472" x1="79.45" x2="79.45" y1="84.25" y2="90.66" gradientUnits="userSpaceOnUse">
      <stop stop-color="#FFD3B6" offset="0"/>
      <stop stop-color="#FFD3B6" stop-opacity=".21" offset="1"/>
    </linearGradient>
  </defs>
</svg>